<?xml version="1.0" encoding="UTF-8"?>
<svg id="Capa_1" data-name="Capa 1" xmlns="http://www.w3.org/2000/svg" viewBox="0 0 717.52 689.82">
  <defs>
    <style>
      .cls-1 {
        fill: #16bacf;
      }

      .cls-2 {
        fill: #0596a7;
      }

      .cls-3 {
        fill: #ed7931;
      }

      .cls-4 {
        fill: #f5c239;
      }

      .cls-5 {
        fill: #73a23a;
      }

      .cls-6 {
        fill: #a4a4a4;
      }

      .cls-7 {
        fill: #a1ca44;
      }

      .cls-8 {
        fill: #68c9dc;
      }

      .cls-9 {
        fill: #def2f5;
      }

      .cls-10 {
        fill: #18bace;
      }

      .cls-11 {
        fill: #ccd2d6;
      }

      .cls-12 {
        fill: #fafaf9;
      }

      .cls-13 {
        fill: #404042;
      }

      .cls-14 {
        fill: #cadd80;
      }

      .cls-15 {
        fill: #fdfdfd;
      }

      .cls-16 {
        fill: #22221f;
      }
    </style>
  </defs>
  <path class="cls-12" d="M210.75,195.75c-8.22,40.75-11.31,83.06-24.57,122.93-49.92,42.12-86.27,91.99-142.91,127.09-10.88,6.74-28.8,13.9-37.85,21.15-17.99,14.42,13.57,24.84,25.33,23.84-11.8,8.89-6.27,16.58,5.48,21.01,2.99,1.13,12.36,3.98,15.02,3.98h29.5c-.4,2-2.05,1.71-3.51,1.99-12.65,2.46-35.39,2.96-46.19,8.81-14.12,7.65-6.8,26.98,6.7,30.22-23.21,18,11.07,37.8,28.97,37.03.89,16.84,20.82,20.46,34.54,18.97,3.85-.42,13.18-5.14,14.86-4.8,1.02.2,4.04,3.83,5.94,4.99,15.36,9.38,29.91.49,41.71-9.68,15.58-13.43,28.19-30.37,39.59-47.39l33.87,12.9c1.5,3.17,2.32,6.96,3.99,10.01,5.37,9.81,8.55,6.13,3.4,18.32-2.08,4.91-8.76,18.44-11.84,22.16-9.18,11.08-34.46,19.79-39.24,35.76-7.18,24.03,24.49,12.24,33.73,3.74-2.36,9.18-3.78,29.16,9.07,30.93,13.03,1.8,21.22-17.77,23.43-27.95l6.96,8.52c5.36,4.99,19.94,13.25,25.51,5.46,7.23-10.12-4.83-27.53-11.51-35.45-3.12-3.7-14.47-12.43-13.8-16.79.95-6.22,12.39-18.37,13.99-25.57,9.99-.08,18.73-5.12,26.31-11.19,2.3-1.84,7.27-8.18,9.23-8.77,3.6-1.07,13.83-.67,18.67-1.33,6.77-.92,21.9-5.17,27.12-4.93,4.06.18,17.53,9.13,24.07,11,8.84,2.53,16.39,2.35,25.44,2.57l19.86,26.16c-6.16,8.54-16.9,15.8-18.61,27.06-1.37,9,1.54,17.9,12.19,16.21,4.94-.78,19.11-16.24,24.65-20.36,21.5-16,40.32-15.78,64.54-22.46,31.62-8.72,14.18-25.24-8.62-25.14l16.89-11.6c7.97-7.72,1.39-14.72-7.63-16.15-23.32-3.7-42.66,17.37-58.77,30.51-1.24-.09-15.13-18.24-15.32-19.47-.73-4.77,3.2-6.52,4.11-8.54,4.3-9.46,3.66-19.43,3.92-29.55,32.31-21.36,57.85-55.31,69.8-92.2,17.35,6.43,38.84,12.29,57.38,8.89,7.62-1.39,14.25-3.81,11.61-12.88,13.2.46,26.55-1.59,39.21-5.29,7.22-2.11,38.1-12.64,26.3-23.73-1.95-1.83-5.34-1.86-6.51-3.97,19.56-6.56,56.19-36.19,55.04-58.47-.25-4.76-3.41-9.4-8.56-9.61-3.43-.14-6.29,1.81-9.44,2.63-.98.26-2.3,1.19-2.04-.55,1.09.1,1.71-.4,2.33-1.23,13.06-17.4,26.24-39.37,31.16-60.78,4.23-18.43,5.17-48.59-21.49-30,6.74-18.3,19.94-43.85,10.53-63.04-2.76-5.63-6.93-9.29-13.56-7.49-6.17,1.67-25.57,24.96-31.96,31.04-28.17,26.86-61.41,50.05-96,67.49l-3.01-6.99c14.65-2.55,7.91-16.82,2-25.01h39.5c1.54,0,9.22-2.39,10.02-3.99,4.79-9.54-17.5-15.36-22.83-18.01-.59-.29-.72-1.68-1.96-2.28-8.04-3.93-16.53-7.17-24.73-10.74-.83-1.14,8.12-10.1,9.43-12.05,25.1-37.36,5.68-91.44-38.23-102.64-2.85-.73-14-1.83-15.01-2.49-.84-.54-3.43-8.95-5.19-10.31,14.36-.73,1.98-14.16-3.53-18.47-7.79-6.09-11.37-3.82-17.46-6.54-3.65-1.62-14.95-12.82-20.71-16.29-63.02-38-118.56-6.81-181.93-22.07-20.41-4.91-56.76-24.85-74.39-8.65-18.29,16.8-.95,38.15,18.02,43.02-11.28,5.03-21.62,9.47-30.02,18.98-10.94,12.39-14.06,29.98,4.34,36.71,9.47,3.46,13.35.98,22.26-.13,1.5-.19,1.7-.19,1.44,1.45-7.65,18.41-11.77,38-15.49,57.52-5.22,2.13-10.72,1.7-16.04,3.96-14.52,6.15-21.56,39.53-3,39.86,8.01.14,9.4-6.03,11.52-11.83h3Z"/>
  <path class="cls-1" d="M305.75,362.75c2.57,3.86,12.77,13.8,17.01,15.49,6.45,2.59,17.17.03,17.9.57.44.32,3.44,7.93,4.67,9.86,9.84,15.31,35.33,35.44,54.43,28.59,1.85-.66,4.86-3.81,6.39-3.44.93.22,10.52,11.8,13.07,13.96,22.13,18.7,41.49,14.48,59.53-6.52,1.47-1.71,2.47-5.83,4.7-6.39,1.5-.38,7.69,2.72,10.84,2.9,9.61.54,20.9-6.5,26.46-14.02-8.95,41.71-24.18,74.11-55,104-2.78.57-6.94,2.71-9.35,4.15-7.12,4.24-13.79,9.01-21.29,12.71-67.31,33.14-150.41,36.64-217.33.61-1.19-.62-1.32-1.73-.95-2.88.34-1.07,13.56-9.18,15.94-11.08,25.52-20.34,44.04-47.73,55.99-77.51,8.29-20.66,10.94-28.28,12-51,.13-2.73,3.44-11.67-1-11,.06-.78-.17-2.82,0-3,.19-.21,1.83.24,1.99,0,.79-1.15-1.75-6.98,4.01-6.01ZM360.74,460.76c-3.5.28-4.75,4.35-7.72,5.77-10.38,4.93-14.14-4.09-15.28-12.77-4.62,2.43-.43,17.11,2.71,19.05,8.26,5.11,19.99-2.98,20.3-12.05ZM395.74,455.75c-2.67-2.88-2.03,6.26-1.88,7.39,2.68,20.81,25.28,13.9,27.87-2.9-2.88-.47-3.36,2.76-4.91,4.05-5.35,4.44-14.07,7.88-18.48.38-1.25-2.12-2.27-8.58-2.59-8.92ZM427.75,477.75c.16,23.22,24.61,18.39,25.5-.99-5.41,6.43-16.12,16.93-21.95,4.9-1.31-2.7.9-4.69-3.55-3.91ZM390.74,492.75c-3.86-3.73-3.87,12.11,3.51,17.01,4.79,3.18,10.85,2.3,15.66-.35,2.94-1.62,10.4-8.9,10.86-12.15.58-4.13-6.48,3.05-8.08,3.93-5.54,3.01-14.5,4.76-18.94-.93-1.49-1.9-2.72-7.22-3.01-7.5Z"/>
  <path class="cls-2" d="M288.75,433.75c-11.94,29.78-30.46,57.17-55.99,77.51-2.38,1.89-15.59,10-15.94,11.08-.37,1.15-.24,2.26.95,2.88,66.92,36.03,150.02,32.53,217.33-.61,7.5-3.69,14.17-8.47,21.29-12.71,2.41-1.44,6.57-3.58,9.35-4.15-23.88,23.16-52.15,38.92-83.48,50.02-15.76,5.59-29.29,8.48-46.16,10.84-5.84.82-15.43.32-20.2,1.8-7.69,2.4-16.29,17.22-30.11,19.88-8.73,1.68-7.49-2.42-8.67-2.63-1.67-.29-3.96,1.74-5.93,2.04-7.65,1.17-8.52-2.21-13.52-5.37-1.13-.72-2.96-.59-4.45-1.55-7.16-4.61-10.41-18.48-13.48-26.02-2.3.83-.55,3.21-4.23,2.83-5.71-.58-23.07-8.2-29.11-10.98-8.6-3.96-19.24-9.7-27.17-14.83-1.83-1.19-13.92-9.06-12.47-11.02,41.89-10.44,80.74-34.01,107.39-68.11,5.27-6.74,9.1-14.39,14.6-20.9Z"/>
  <path class="cls-2" d="M266.75,290.75c5.71,10.71,14.92,19.41,28,16.99-1.82,18.65,13.02,55.57,32.94,59.56,4.76.95,11.44-1.83,11.93-1.48.61.43,5.93,10.58,7.71,12.84,11.93,15.1,38.24,31.61,57.31,21.16,6.33,10.91,18.57,20.79,30.43,25.1,20.2,7.34,35.46-6.8,46.24-22.16,15.59,10.85,32.26-2.79,41.94-15.01,1.64,5.19-1.48,11.21-2.5,16-5.57,7.51-16.86,14.56-26.46,14.02-3.15-.18-9.34-3.28-10.84-2.9-2.23.56-3.23,4.68-4.7,6.39-18.04,21-37.4,25.23-59.53,6.52-2.56-2.16-12.14-13.74-13.07-13.96-1.53-.37-4.54,2.78-6.39,3.44-19.1,6.85-44.58-13.28-54.43-28.59-1.24-1.92-4.23-9.53-4.67-9.86-.73-.53-11.45,2.02-17.9-.57-4.23-1.7-14.43-11.63-17.01-15.49-4.02-6.03-9.78-25.06-11.76-32.74-.63-2.43.07-8.26-1.48-10.02-1.32-1.5-5.15-.84-6.99-1.51-1.29-.47-4.34-2.01-5.77-2.73-2.36-1.2-7.96-4.53-9-7-1.41-3.36-4.41-10.96-5.22-14.35-.45-1.88-1.55-2.6,1.22-3.65Z"/>
  <path class="cls-2" d="M90.75,527.75c20.41,5.31,44.65.51,65.28-1.86,12.42,10.12,25.99,19.53,40.72,25.88,1.78,2.39-23.64,32.05-26.97,35.51-8.11,8.43-24.07,23.9-36.43,22.39-2.68-.33-11.48-3.32-9.47-6.81.32-.55,8.96-5.25,10.8-6.7,12.56-9.84,23.4-20.9,34.08-32.42.14-.15,1.58-.08,2.43-1.03,3.5-3.97,6.85-7.95,9.55-12.48-5.34,1.42-8.28,7.27-11.98,10.51-4.42,3.87-9.43,7.25-14,11,.59-2.64-1.38-1.91-2.91-2.54-4.96-2.04-11.2-3.65-14.09-8.46,4.84-3.34,9.73-7.1,14-11,1.23-1.13,1.06.78,3-3,.67-.24,2.11.23,2.95-.51l6.05-5.48c-2.03.81-7,2.67-8.36,3.92-1.07.98-.45,1.72-.63,2.07-2.22.81-2.75.92-5,2-6.49,3.11-12.71,6.54-19,10-.43-3.29-5.92-5.22-7.66-7.34-2.1-2.56-3.41-7.86-5.34-10.66,1.7-.62,13.11-5.8,14-6.5.47-.37,1.34-1.24,1-1.49-11.8,3.02-24.11,5.08-36,7.99.31-3.91-3.16-3.71-4.9-7.61-.8-1.79-1.37-3.38-1.1-5.39Z"/>
  <path class="cls-4" d="M265.75,610.75c-1.4,2.55-7.19,13.49-6.83,15.25.67,3.23,15.63,17.11,18.81,21.27,3.56,4.67,12.91,18.9,9.02,24.48h-2c-.65-.05-1.45.12-2,0l-17.45-19.05-4.55-1.95c-.14-.25.14-.75,0-1l-1-1c-.36-.68-.66-1.35-1-2l.98-.51-.98-.49c-.88-1.54-2.45-4.14-3.99-5,.22,9.93-1.13,21.93-5.53,30.98-3.23,6.63-13.28,18.34-16.03,5.07s3.67-26.3,7.55-38.05l-6.99,4.99c-1.83-.6-2.65-1.21-4.52-.1-3.02,1.81-7.45,6.93-11.56,9.52-4.71,2.97-10.64,5.78-15.92,7.58-.29.1-.69-.09-1,0h-1c-1.04-5.05,6.04-11.82,9.47-15.03,17.77-16.6,28.67-17.58,40.53-41.97,3.4,6.45,10.28,5.09,16,7Z"/>
  <path class="cls-4" d="M518.75,567.75c.41,1.9-1.85,3.37-3.09,4.41-8.53,7.2-22.15,13.21-31.91,20.59-3.15,2.38-6.48,4.19-8.98,7.51,3.22.36,6.63-2.76,8.98-3.51,9.82-3.11,25.88-4.84,35.54-1.04,1.58.62,5.96,2.34,5.46,4.53-.82,3.55-23.8,6.7-28,7.52-.46.09-.86.54-1,1-.92.16-2.15-.2-3,0,.48-3.12-1.27-1.93-3.2-1.72-15.51,1.69-35.14,11.17-47.71,20.3-4.85,3.52-9.88,9.28-14.72,12.29-1.28.8-4.13,1.03-4.28,1.2-.95,1.08.99,6.15.91,7.92-5.22,1.43-4.5-8.4-3.53-12.03,2.17-8.16,18.13-19.68,18.4-24.46.07-1.18-.76-2.43-.87-3.51-.17-1.69.1-3.2-.43-5.04-.7-2.45-4.72-8.67-4.4-10.31.46-2.38,7.86-7.78,7.83-11.65,4.39,5.55,9.83,10.44,13.13,16.86,3.13.88,4.36-2.46,6.87-3.86,11.92-6.66,21.66-16.33,34.64-21.86,7.38-3.14,15.21-5.83,23.36-5.14Z"/>
  <path class="cls-10" d="M117.75,540.75c1.92,2.8,3.23,8.1,5.34,10.66,1.74,2.12,7.24,4.05,7.66,7.34-5.44,3-10.74,6.09-16.26,9.03-22.27,11.86-46.73,29.95-71.22,9.95-3.22-2.63-4.7-3.96-5.52-7.98,5.05-1.71,10.29-3.3,15.27-5.23,14.75-5.74,29.71-9.95,44.69-15.31,5.11-1.83,11.61-4.36,16.04-7.46,1.62-.56,3.17-.7,4-1Z"/>
  <path class="cls-10" d="M137.75,560.75c2.89,4.81,9.12,6.42,14.09,8.46,1.53.63,3.5-.1,2.91,2.54-15.75,12.91-41.2,35.42-62.54,34.03-5.73-.37-18.58-3.44-17.33-10.92,21.85-9.47,43.27-20.56,62.87-34.12Z"/>
  <path class="cls-10" d="M90.75,527.75c-.27,2.01.31,3.6,1.1,5.39,1.74,3.9,5.2,3.71,4.9,7.61-11.8,2.88-37.87,12.34-48.5,12.08-6.48-.16-17.29-5.9-17.5-13.08l53-14c2.02.64,4.94,1.46,7,2Z"/>
  <path class="cls-2" d="M414.75,575.75c-13.12,4.26-25.03,2.59-37.37-4.13-1.63-.89-4.02-1.47-3.62-3.87,19.51-4.86,38.06-13.26,55.67-22.84,2.13-1.16,12.14-8.36,13.32-7.17-.07,1.31.13,2.69,0,4l-31.57,26.02c-1.15,2.34,3.58,5.06,3.57,7.98Z"/>
  <path class="cls-10" d="M442.75,541.75c-.7,7.18-3.45,18.62-8.6,23.9-4.56,4.67-8.05,1.77-8.39,2.09-.21.2.03,2.8-2.5,5.03-3.29,2.9-5.57,2.03-8.51,2.98.01-2.93-4.72-5.64-3.57-7.98l31.57-26.02Z"/>
  <path class="cls-3" d="M440.75,581.75c.03,3.87-7.37,9.26-7.83,11.65-.32,1.64,3.7,7.86,4.4,10.31.53,1.84.25,3.35.43,5.04-4.16-6.27-8.41-12.51-13.03-18.47-2.06-2.66-5.9-4.64-5.97-8.52,6.45-.39,11.34-4.72,16.52-7.96,1.08.09,4.62,6.85,5.49,7.95Z"/>
  <path class="cls-3" d="M423.75,648.75c.08-1.77-1.86-6.84-.91-7.92.15-.17,3-.4,4.28-1.2,4.83-3.02,9.87-8.77,14.72-12.29,12.58-9.13,32.2-18.61,47.71-20.3,1.93-.21,3.68-1.41,3.2,1.72-17.93,4.16-35.99,11.61-50.47,23.03-3.16,2.49-16.95,16.54-18.53,16.97Z"/>
  <path class="cls-3" d="M249.75,603.75c.96-1.97,1.56-10.01,4.65-10.92,2.05-.6,14.2,6.71,18.35,4.92,1.49,1.45-5.98,11.14-7,13-5.72-1.91-12.6-.55-16-7Z"/>
  <path class="cls-8" d="M113.75,541.75c-4.43,3.1-10.93,5.63-16.04,7.46-14.98,5.36-29.95,9.57-44.69,15.31-4.97,1.94-10.21,3.53-15.27,5.23-1-4.9,2.46-5.9,6.74-7.76,19.57-8.52,48.1-12.95,69.26-20.24Z"/>
  <path class="cls-8" d="M83.75,525.75l-53,14c-.2-6.68,5.43-7.98,10.99-9.51,4.82-1.32,38.75-7.01,41.03-6.02.68.29.87,1.5.97,1.53Z"/>
  <path class="cls-10" d="M279.75,315.75c1.43.72,4.48,2.26,5.77,2.73,1.85.67,5.67.02,6.99,1.51,1.55,1.76.85,7.58,1.48,10.02,1.98,7.68,7.75,26.71,11.76,32.74-5.75-.97-3.22,4.85-4.01,6.01-.16.24-1.8-.22-1.99,0-1.27-2.18-1.07-4.61-1-7,0-.15,1.1-1.13,1.09-2.46,0-1.06-.86-8.18-1.11-8.53-.15-.21-1.41.05-1.97,0-.27-2.29.47-5.15-.03-7.3-.89-3.81-7.27-14.98-10.14-19.03-2.05-2.89-5.68-5.3-6.83-8.67Z"/>
  <path class="cls-14" d="M518.75,567.75c-8.15-.68-15.98,2-23.36,5.14-12.98,5.53-22.72,15.2-34.64,21.86,13.61-13.29,33.82-31.77,54.43-28.93,1.11.15,3.28.59,3.57,1.93Z"/>
  <path class="cls-3" d="M233.75,643.75c-6.26,6.61-19.58,17.6-28.61,18.91-1.88.27-3.95.98-3.39-1.91,5.28-1.8,11.21-4.61,15.92-7.58,4.11-2.59,8.54-7.71,11.56-9.52,1.87-1.12,2.69-.51,4.52.1Z"/>
  <path class="cls-3" d="M282.75,671.75c-10.34-2.32-16.96-12.37-22-21l4.55,1.95,17.45,19.05Z"/>
  <path class="cls-13" d="M168.75,563.75v-3c3.7-3.24,6.64-9.09,11.98-10.51-2.71,4.53-6.05,8.5-9.55,12.48-.84.96-2.28.88-2.43,1.03Z"/>
  <path class="cls-13" d="M483.75,596.75c-2.35.75-5.76,3.87-8.98,3.51,2.5-3.32,5.83-5.13,8.98-7.51v4Z"/>
  <path class="cls-10" d="M299.75,371.75c4.44-.67,1.13,8.27,1,11h-1c.43-3.39-.25-7.47,0-11Z"/>
  <path class="cls-13" d="M154.75,546.75c.18-.36-.43-1.09.63-2.07,1.36-1.25,6.33-3.11,8.36-3.92l-6.05,5.48c-.84.74-2.28.27-2.95.51-1.94,3.78-1.77,1.87-3,3l-2-1c2.25-1.08,2.78-1.19,5-2Z"/>
  <path class="cls-3" d="M286.75,671.75c-.17.24.05.85-.61.96-.72.19-1.28-.95-1.39-.96h2Z"/>
  <path class="cls-3" d="M495.75,608.75c.14-.46.54-.91,1-1-.12.48-.53.92-1,1Z"/>
  <path class="cls-3" d="M258.75,646.75c-.14-.26.14-.75,0-1l.98.49-.98.51Z"/>
  <path class="cls-3" d="M260.75,649.75c-.18-.31-.78-.59-1-1l1,1Z"/>
  <path class="cls-3" d="M199.75,660.75h1c-.11.03-.44,2.06-1,0Z"/>
  <path class="cls-2" d="M390.74,492.75c.29.28,1.52,5.6,3.01,7.5,4.44,5.69,13.4,3.94,18.94.93,1.6-.87,8.66-8.05,8.08-3.93-.45,3.25-7.92,10.53-10.86,12.15-4.81,2.64-10.88,3.53-15.66.35-7.38-4.9-7.37-20.74-3.51-17.01Z"/>
  <path class="cls-2" d="M395.74,455.75c.32.34,1.34,6.8,2.59,8.92,4.41,7.5,13.14,4.06,18.48-.38,1.55-1.29,2.03-4.52,4.91-4.05-2.58,16.8-25.18,23.71-27.87,2.9-.15-1.13-.8-10.27,1.88-7.39Z"/>
  <path class="cls-2" d="M360.74,460.76c-.31,9.07-12.04,17.16-20.3,12.05-3.14-1.94-7.33-16.62-2.71-19.05,1.14,8.68,4.9,17.7,15.28,12.77,2.97-1.41,4.22-5.48,7.72-5.77Z"/>
  <path class="cls-2" d="M427.75,477.75c4.45-.78,2.24,1.21,3.55,3.91,5.83,12.02,16.53,1.52,21.95-4.9-.89,19.38-25.34,24.21-25.5.99Z"/>
  <g>
    <path class="cls-7" d="M252.75,307.75c16.32,3.76,37.47,27.66,43,43,1.01,2.79.78,7.99,3,11-.07,2.39-.27,4.82,1,7-.17.18.06,2.22,0,3-.25,3.53.43,7.61,0,11-.46,3.63-2.87,11.03-4,15-2.57-.54-2.05,1.24-2.71,2.73-5.8,12.97-17.76,30.1-27.32,40.74-4.26,4.74-21.7,16.74-27.74,19.26-17.07,7.12-15.56-3.25-14.23-16.72-5.93,2.57-10.91,6.97-16.78,9.71-11.92,5.55-35.6,12.38-32.15-9.15.84-5.21,6.19-9.94,6.45-15.54-7.89,4.46-39.32,13.32-43.99,2.96-4.12-9.14,10.6-26.97,9.47-27.98-8.93.88-18.03,3.64-27,.99,27.35-26.72,83.06-96.55,121.48-98.05,2.82-.11,8.86.43,11.52,1.05Z"/>
    <path class="cls-7" d="M114.75,409.75c6.87,2.68,13.82,2.55,20.99,1.01-.22,3-2.66,4.91-3.77,7.72-10.54,26.7,20.25,28.5,37.77,21.28-3.95,10.81-2.49,22.08,9.79,25.71,12.95,3.83,26.25-3.63,37.21-9.72-.46,11.48,6.72,14.63,17,14.49-29.3,21.73-65.19,35.96-100.99,43.01-12.42,2.45-25.01,3.67-37.52,5.53-1.87.28-4.05-1.26-3.49,1.96-1.32-.35-2.64-.82-4-1.01-1.48-1.91,31.85-14.95,34.36-16.13,8.8-4.13,17.36-8.86,25.64-13.86,2.39-1.44,5.78-2.07,7-4.99-3.47-.33-5.91,2.21-9,2.99-31.26,7.89-68.67,16.99-101.54,15.04-3.46-.21-7.35-2.31-10.46-1.04-.27-.23-3.04.81-2.04-2.48,1.21-3.97,64.57-25.55,71.03-34.03-2.87-.79-7.8,1.37-10.99,2.51-.77-1.72-3.35-.5-4.68-.2-19.31,4.45-58.05,13.88-76.32,8.2,3.49-3.37,8.86-4.12,13.36-6.14,33.08-14.92,64.22-35.15,90.64-59.86Z"/>
    <path class="cls-14" d="M252.75,307.75c-2.66-.61-8.71-1.16-11.52-1.05-38.42,1.5-94.12,71.33-121.48,98.05-1.64,1.61-3.38,3.48-5,5-26.43,24.71-57.56,44.94-90.64,59.86-4.5,2.03-9.87,2.78-13.36,6.14-.51-.16-1.38.11-2,0-.11-.42-.83-.98-.71-1.52,19.07-11.67,38.98-21.25,57.44-34.26,44.88-31.65,72.33-69.99,111.75-105.25,18.93-16.93,49.47-39.26,75.53-26.97Z"/>
    <path class="cls-5" d="M145.75,487.75v1c-20.67,7.48-41.59,16.08-63.63,18.87-13.18,1.67-37.98,2.97-48.37-5.87,3.11-1.28,7.01.83,10.46,1.04,32.87,1.96,70.28-7.14,101.54-15.04Z"/>
    <path class="cls-5" d="M91.75,467.75c-22.48,8.02-43.42,17.89-68.24,14.74-2.77-.35-12.18-3.06-14.12-4.68-1.06-.89-.44-1.34-.64-2.06.62.11,1.49-.16,2,0,18.27,5.68,57.01-3.75,76.32-8.2,1.33-.31,3.91-1.52,4.68.2Z"/>
    <path class="cls-13" d="M296.75,350.75c.56.06,1.83-.2,1.97,0,.25.35,1.1,7.47,1.11,8.53,0,1.33-1.08,2.31-1.09,2.46-2.22-3.01-1.99-8.21-3-11h1Z"/>
    <path class="cls-13" d="M145.75,487.75c3.09-.78,5.53-3.32,9-2.99-1.22,2.92-4.61,3.55-7,4.99l-2-1v-1Z"/>
    <path class="cls-5" d="M295.75,397.75c-14.01,49.27-55.52,89.12-102.03,108.47-26.83,11.16-73.75,22.05-101.97,14.53-.56-3.22,1.62-1.69,3.49-1.96,12.51-1.86,25.1-3.08,37.52-5.53,35.8-7.05,71.68-21.28,100.99-43.01-10.28.14-17.47-3.02-17-14.49-10.96,6.08-24.26,13.54-37.21,9.72-12.28-3.63-13.74-14.9-9.79-25.71-17.53,7.21-48.31,5.42-37.77-21.28,1.11-2.81,3.55-4.72,3.77-7.72-7.17,1.54-14.13,1.67-20.99-1.01,1.62-1.52,3.36-3.39,5-5,8.96,2.65,18.07-.11,27-.99,1.13,1.01-13.59,18.84-9.47,27.98,4.67,10.36,36.1,1.5,43.99-2.96-.25,5.6-5.61,10.32-6.45,15.54-3.45,21.53,20.23,14.7,32.15,9.15,5.88-2.74,10.86-7.14,16.78-9.71-1.32,13.47-2.84,23.85,14.23,16.72,6.04-2.52,23.48-14.51,27.74-19.26,9.56-10.64,21.51-27.76,27.32-40.74.67-1.49.14-3.27,2.71-2.73Z"/>
  </g>
  <g>
    <path class="cls-7" d="M690.75,230.75c-4.95,17.5-17.53,32.66-25,49-.47.15-.88.52-1,1-.08.31.06.68,0,1-.37.14-1.2-.3-1.79.18-.29.24-3.47,6.55-3.2,6.82,2.39,2.43,4.73-5.6,4.99-6.99.93-.35,2.05-.72,3-1,5.72-1.69,23.49-19.32,31.68-24.82,1.68-1.13,3.02-2.56,5.32-2.18,2.1,9.06.49,17.43-1.17,26.34-.25,1.36-1.62,3.83.18,4.66-10.72,29.73-31.2,54.34-52,77.5,1.24,1.11,4.79-.83,6-1.5-.26,3.33.56,1.6,2.31.81,11.2-5,22.23-10.42,33.69-14.81-.62,3.66-1.35,6.55-3,10-4.36,2.26-7.24,6.51-11.08,9.42-18.87,14.26-42.81,24.61-65.92,29.57,5.62-5.45,11.9-7.12,11.04-16.49-.68-7.38-6.96-8.16-11.76-11.26-.97-.63-1.79.11-1.28-2.23,22.27-7.4,43-43.31,5-44.03,14.57-13.51,26.73-43.14-5-41,4.27-6.28,6.37-14.3,6-21.99,21.14-15.17,41.84-32.87,60.52-50.98,2.86-2.77,9.85-12.62,13.13-12.92,1.48-.13,1.59.49,2.13,1.61,3.14,6.48-.71,26.95-2.78,34.28Z"/>
    <path class="cls-5" d="M617.75,258.75c.37,7.69-1.73,15.71-6,21.99,31.73-2.14,19.57,27.49,5,41,38,.71,17.28,36.62-5,44.03-.51,2.33.31,1.6,1.28,2.23,4.8,3.1,11.08,3.87,11.76,11.26.86,9.37-5.43,11.05-11.04,16.49,23.11-4.97,47.05-15.31,65.92-29.57,3.84-2.9,6.73-7.15,11.08-9.42-4.81,10.04-17.7,21.3-26.69,27.81-12.71,9.21-26.89,15.65-41.31,21.69l24.99,4.5c2.13,2.29-10.88,8.56-12.32,9.17-21.79,9.34-50.43,9.93-73.68,7.83l18.99,11.49c-14.99,4.75-32.13,2.53-46.99-2.01-2.28-.7-9.59-2.89-11.01-4-2.27-1.78,1.94-10.31,2.72-13.28,4.3-16.54,7.52-33.45,8.41-50.59.75-2.26,4.02-1.33,5.88-2.12,14.5-6.15,16.57-30.33,15.99-44.01-.05-1.21-1.28-4.2-1.01-4.49.23-.25,4.33-.59,6.51-2,9.05-5.85,9.01-20.71,7.49-30.01.99-1.01,3.32-.63,4-1,6.01,11.82,6.56,25.27-.8,36.7-1.79,2.78-7.45,7.17-7.99,9.01-1.51,5.08.41,16.1-.46,22.54-.87,6.44-7.13,15.09-7.5,18.39s5.52,15.47,5.69,19.94c14.74,2.47,38.26,3.98,51.01-5.14,14.62-10.45-7.92-14.95-14.92-19.94,9.16-4.46,36.25-22.03,32.78-33.78-.68-2.31-7.54-5.72-9.3-5.72h-18.5c6.27-7.25,26.12-26.71,21.48-36.99-3.74-8.27-21.96-.67-23.47-2.02,2.94-6.38,7.49-12.14,9.51-18.99.69-2.36.18-4.1.49-6,.65-3.98,4.94-3.52,7-5Z"/>
    <path class="cls-14" d="M568.75,286.75c-.3-1.86-2.64-6.92-1.93-7.91,42.87-20.23,80.04-50.87,112.95-84.57,2.89-2.96,12.01-16.9,16.71-12.26,7.88,7.77.6,39.94-5.74,48.73,2.07-7.33,5.92-27.8,2.78-34.28-.54-1.12-.65-1.75-2.13-1.61-3.28.3-10.27,10.14-13.13,12.92-18.68,18.1-39.38,35.81-60.52,50.98-2.06,1.48-6.35,1.02-7,5-11.75,7.02-23.65,13.42-35.74,19.8-1.26.67-1.97,2.04-2.26,2.2-.68.37-3.01,0-4,1Z"/>
    <path class="cls-14" d="M703.75,284.75c-1.79-.83-.43-3.3-.18-4.66,1.66-8.92,3.27-17.28,1.17-26.34-2.29-.38-3.63,1.05-5.32,2.18-8.18,5.5-25.95,23.13-31.68,24.82.9-1.2,1.54-2.84,2.59-3.9,4.7-4.72,32.27-32.03,36.8-31.02,3.52.79,2.82,13.49,2.59,16.4-.58,7.41-3.47,15.53-5.98,22.52Z"/>
    <path class="cls-14" d="M693.75,346.75c-11.45,4.39-22.49,9.81-33.69,14.81-1.75.78-2.57,2.51-2.31-.81,5.88-3.27,30.23-20.13,35.43-18.95,3.2.73.7,4.21.57,4.95Z"/>
    <path class="cls-13" d="M664.75,280.75c.12-.48.53-.85,1-1-.19.41-.65.73-1,1Z"/>
    <path class="cls-13" d="M664.75,281.75c-.26,1.39-2.61,9.43-4.99,6.99-.26-.27,2.91-6.58,3.2-6.82.59-.48,1.42-.04,1.79-.18Z"/>
    <path class="cls-7" d="M610.75,263.75c-.31,1.9.2,3.64-.49,6-2.01,6.85-6.57,12.62-9.51,18.99,1.52,1.35,19.74-6.25,23.47,2.02,4.65,10.28-15.21,29.74-21.48,36.99h18.5c1.77,0,8.62,3.41,9.3,5.72,3.47,11.75-23.63,29.32-32.78,33.78,7,4.98,29.54,9.48,14.92,19.94-12.75,9.11-36.27,7.61-51.01,5.14-.18-4.47-6.06-16.71-5.69-19.94s6.63-11.95,7.5-18.39c.87-6.43-1.05-17.45.46-22.54.54-1.83,6.2-6.23,7.99-9.01,7.37-11.42,6.81-24.88.8-36.7.29-.15,1-1.53,2.26-2.2,12.09-6.38,24-12.78,35.74-19.8Z"/>
  </g>
  <g>
    <path class="cls-16" d="M207.75,195.75c-2.12,5.8-3.51,11.98-11.52,11.83-18.56-.33-11.52-33.71,3-39.86,5.32-2.25,10.82-1.83,16.04-3.96,3.72-19.52,7.84-39.11,15.49-57.52.26-1.64.05-1.63-1.44-1.45-8.91,1.11-12.79,3.59-22.26.13-18.4-6.73-15.28-24.32-4.34-36.71,8.4-9.51,18.74-13.95,30.02-18.98-18.97-4.86-36.31-26.21-18.02-43.02,17.63-16.2,53.98,3.74,74.39,8.65,63.38,15.25,118.91-15.94,181.93,22.07,5.76,3.47,17.06,14.67,20.71,16.29,6.09,2.71,9.67.45,17.46,6.54,5.51,4.31,17.89,17.74,3.53,18.47,1.75,1.37,4.35,9.77,5.19,10.31,1.01.65,12.16,1.76,15.01,2.49,43.91,11.2,63.33,65.28,38.23,102.64-1.31,1.95-10.27,10.9-9.43,12.05,8.2,3.57,16.69,6.8,24.73,10.74,1.24.61,1.37,1.99,1.96,2.28,5.33,2.65,27.62,8.47,22.83,18.01-.8,1.59-8.48,3.99-10.02,3.99h-39.5c5.91,8.19,12.65,22.46-2,25.01l3.01,6.99c34.6-17.43,67.83-40.62,96-67.49,6.38-6.09,25.79-29.38,31.96-31.04,6.64-1.79,10.8,1.87,13.56,7.49,9.41,19.19-3.79,44.73-10.53,63.04,26.66-18.58,25.73,11.58,21.49,30-4.92,21.41-18.1,43.38-31.16,60.78-.62.83-1.25,1.33-2.33,1.23-.26,1.74,1.06.81,2.04.55,3.14-.82,6.01-2.77,9.44-2.63,5.15.21,8.31,4.85,8.56,9.61,1.15,22.28-35.48,51.91-55.04,58.47,1.17,2.11,4.56,2.14,6.51,3.97,11.79,11.1-19.08,21.62-26.3,23.73-12.67,3.7-26.01,5.75-39.21,5.29,2.64,9.08-4,11.49-11.61,12.88-18.54,3.39-40.03-2.46-57.38-8.89-11.95,36.89-37.49,70.84-69.8,92.2-.26,10.12.38,20.09-3.92,29.55-.92,2.01-4.84,3.76-4.11,8.54.19,1.23,14.08,19.38,15.32,19.47,16.12-13.15,35.45-34.22,58.77-30.51,9.02,1.43,15.61,8.43,7.63,16.15l-16.89,11.6c22.81-.11,40.24,16.42,8.62,25.14-24.22,6.68-43.04,6.46-64.54,22.46-5.54,4.12-19.71,19.58-24.65,20.36-10.65,1.68-13.57-7.21-12.19-16.21,1.72-11.27,12.45-18.52,18.61-27.06l-19.86-26.16c-9.04-.22-16.6-.04-25.44-2.57-6.54-1.87-20.01-10.82-24.07-11-5.22-.23-20.35,4.01-27.12,4.93-4.84.66-15.07.26-18.67,1.33-1.96.58-6.94,6.92-9.23,8.77-7.58,6.08-16.32,11.11-26.31,11.19-1.6,7.21-13.04,19.35-13.99,25.57-.67,4.37,10.68,13.09,13.8,16.79,6.68,7.92,18.75,25.33,11.51,35.45-5.57,7.79-20.15-.47-25.51-5.46l-6.96-8.52c-2.21,10.18-10.4,29.75-23.43,27.95-12.85-1.77-11.43-21.76-9.07-30.93-9.24,8.5-40.91,20.29-33.73-3.74,4.77-15.97,30.06-24.68,39.24-35.76,3.08-3.72,9.77-17.25,11.84-22.16,5.15-12.18,1.97-8.51-3.4-18.32-1.67-3.05-2.48-6.84-3.99-10.01l-33.87-12.9c-11.39,17.02-24,33.95-39.59,47.39-11.8,10.17-26.34,19.06-41.71,9.68-1.9-1.16-4.92-4.79-5.94-4.99-1.68-.33-11.01,4.38-14.86,4.8-13.72,1.5-33.65-2.13-34.54-18.97-17.9.77-52.17-19.03-28.97-37.03-13.5-3.24-20.83-22.57-6.7-30.22,10.8-5.85,33.54-6.35,46.19-8.81,1.46-.28,3.11.01,3.51-1.99h-29.5c-2.67,0-12.03-2.85-15.02-3.98-11.75-4.43-17.28-12.12-5.48-21.01-11.76,1-43.32-9.41-25.33-23.84,9.05-7.25,26.97-14.41,37.85-21.15,56.63-35.1,92.98-84.98,142.91-127.09,13.26-39.87,16.35-82.18,24.57-122.93.61-3.02,1.49-5.82.99-9-2.82,1.61-2.96,6.2-3.99,9ZM214.75,21.75c-.38,15.14,20.63,21.67,32.78,23.72,2.47.42,21.23,1.68,21.23,2.78-19.96,2.77-52.98,10.38-63.83,29.18s5.59,25.41,21.82,20.82c13.4-3.79,11.9-10.68,18.56-20.44,8.7-12.77,25.43-28.26,38.52-36.48,8.03-5.05,16.04-7.67,23.92-12.58,2.35-.18,6.89-.58,8-2.99-9.1.37-18.18-1.48-27.01-3.5-16.04-3.67-45.88-17.71-60.25-15.27-7.34,1.24-13.54,7.07-13.74,14.76ZM474.75,58.75c1.88-1.53,2.68-3.07,6-3.01,1.55-2.07-10.48-9.72-12.48-11.01-36.87-23.72-90.98-24.46-132.71-15.67-62.53,13.18-94.45,53.53-108.13,113.87-1.48,6.53-2.81,13.17-3.68,19.81,2.6.77,4.94-.68,7-.99,6.28-.95,43.89-5.95,46-8,1.96-1.9,2-6.63,3-9,20.81-49.29,86.63-62.97,123-22,1.07,1.2,3.02,3.68,4,5s3.03,5.27,4,7c1.66,2.96,2.66,6.5,5,9,.75,2.28,1.38,4.68,2.01,7,11.23-5.34,22.77-8.12,34.98-3.99.77-3.99,1.4-7.98,2.01-12.01,8.76-23.21,28.59-42.32,54-45.01.54-2.33-1.18-3.39-2-4.99-6.84-13.25-10.42-13.03-24.78-8.28-4.53,1.5-12.58,7.74-16.82,4.37-5.82-4.62,5.54-18.8,9.6-22.09ZM508.74,69.75c2.43-2.42-6.55-7.51-8.3-8.19-12.16-4.78-26.55-.42-29.69,13.19,6.23-1.2,11.01-5.11,17.6-5.89s13.74.04,20.39.89ZM469.75,119.75c-5.75,8.11-9.76,16.46-10.98,26.51-.32,2.62.6,7.68-.02,9.49-11.18-4.65-20.97-6.75-32.67-2.17-3.2,1.25-6.62,2.58-7.33,6.17-.14.73-.32,4.02.51,4.01,3.15-.2,10.68-5.01,12.99-5.01h18c.42,0,7.14,2.8,7.59,3.41,3.16,4.15-3.31,8.01,7.91,6.6-6.64-30.06,13.6-64.68,45.51-66.99,50.4-3.65,77.07,56.43,43.02,93.02-2.51,2.7-8.53,4.71-2.56,6.54,4.19,1.28,8.92-4.35,11.54-7.56,14.58-17.87,18.29-54.88,1.49-72.01-5.93-12.15-20.2-20.92-33.01-24.49-23.44-6.53-48.06,2.85-61.99,22.49ZM286.75,146.75c-20.29,37.22,13.54,85.64,53.62,89.88,53.61,5.67,97.34-60.42,62.38-101.88-28.13-44.87-97.26-37.32-116,12ZM520.75,107.75c-35.19-2.12-59.88,31.3-47.3,64.03,22.79,6.43,44.5,15.95,66.3,24.97,5.21.6,4.62-2.11,7-4,29.18-23.18,19.84-71.8-16-83-3.89-1.22-5.81-1.75-10-2ZM275.75,164.75c.11-.92.34-4.06-.51-4.01l-71.15,11.85c-5.91,1.35-9.95,8.72-11.34,14.17-1.27,4.98-3.1,16.38,5.3,13.84,6.05-1.83.54-17.27,14.46-20.58l60.56-9.44c1.83-.82,2.46-3.89,2.69-5.81ZM452.75,165.76c-1.81-1.72-17.1-1.38-20.27-.78-8.01,1.53-14.82,4.21-12.73,13.76l15.02-9.47c5.28-2.55,11.2-.85,16.49-1.53,1.38-.18,2.97-.58,1.48-1.99ZM429.75,179.75c-15.72,9.86-13.72,20.75-23,34-.89,1.27-7.98,7.92-7.98,8.5,5.87,6.66,14.88,10.17,23.22,12.76,37.08,11.54,74.62,1.26,112.22-.31,14.87-.62,30.57.07,45.54.04,3.33,0,6.68.05,10,0,1.89-.03,4.91.68,6-1,1.99-.1,4.01.08,6,0-4.76-4.78-12.96-8.22-19.31-11.18-23.98-11.21-48.99-21.8-73.71-31.29-21.74-8.34-57.58-24.94-78.99-11.51ZM277.75,189.75c-.96-4.26-1.89-8.61-2-13.01l-55.95,8.06c-.48.5.2,5.38-.05,6.95-6.29,39.39-12.49,79.02-22.98,117.54-.42,3.45,2.86.06,3.98-.54,24.94-13.19,45.2-15.56,70,0,1.04,2.47,6.64,5.8,9,7,1.16,3.37,4.78,5.78,6.83,8.67,2.87,4.05,9.25,15.23,10.14,19.03.5,2.15-.24,5,.03,7.3h-1c-5.53-15.34-26.68-39.24-43-43-26.06-12.29-56.6,10.05-75.53,26.97-39.42,35.26-66.87,73.6-111.75,105.25-18.45,13.01-38.36,22.59-57.44,34.26-.12.54.6,1.1.71,1.52.2.72-.42,1.17.64,2.06,1.94,1.62,11.35,4.33,14.12,4.68,24.83,3.14,45.77-6.72,68.24-14.74,3.19-1.14,8.12-3.29,10.99-2.51-6.46,8.48-69.82,30.06-71.03,34.03-1,3.29,1.77,2.25,2.04,2.48,10.39,8.84,35.2,7.54,48.37,5.87,22.04-2.79,42.96-11.39,63.63-18.87l2,1c-8.28,5-16.84,9.73-25.64,13.86-2.5,1.18-35.83,14.22-34.36,16.13,1.36.19,2.67.66,4,1.01,28.22,7.51,75.13-3.37,101.97-14.53,46.51-19.35,88.02-59.2,102.03-108.47,1.13-3.97,3.54-11.37,4-15h1c-1.06,22.72-3.71,30.34-12,51-5.5,6.51-9.34,14.16-14.6,20.9-26.66,34.1-65.5,57.67-107.39,68.11-1.45,1.96,10.64,9.83,12.47,11.02,7.93,5.13,18.57,10.87,27.17,14.83,6.04,2.78,23.4,10.4,29.11,10.98,3.69.38,1.93-2.01,4.23-2.83,3.07,7.54,6.32,21.42,13.48,26.02,1.49.96,3.32.83,4.45,1.55,5,3.16,5.87,6.54,13.52,5.37,1.97-.3,4.27-2.33,5.93-2.04,1.19.21-.06,4.31,8.67,2.63,13.82-2.66,22.42-17.48,30.11-19.88,4.76-1.48,14.36-.99,20.2-1.8,16.87-2.36,30.4-5.25,46.16-10.84,31.33-11.1,59.6-26.85,83.48-50.02,30.82-29.89,46.05-62.29,55-104,1.03-4.79,4.14-10.81,2.5-16-9.68,12.22-26.34,25.85-41.94,15.01-10.78,15.36-26.04,29.51-46.24,22.16-11.86-4.31-24.1-14.19-30.43-25.1-19.07,10.45-45.38-6.05-57.31-21.16-1.78-2.25-7.1-12.41-7.71-12.84-.5-.35-7.17,2.43-11.93,1.48-19.92-3.99-34.75-40.91-32.94-59.56-13.08,2.41-22.29-6.28-28-16.99-5.32-9.98-4.71-29.69-2.53-41.03,2.92-15.28,10.97-29.96,22.36-40.46-2.36-4.06-6.8-10.35-8.27-14.58-.73-2.1-.23-3.52-.55-4.92ZM690.75,230.75c6.34-8.8,13.62-40.96,5.74-48.73-4.7-4.64-13.83,9.3-16.71,12.26-32.91,33.7-70.09,64.34-112.95,84.57-.71.98,1.62,6.04,1.93,7.91,1.52,9.3,1.56,24.16-7.49,30.01-2.18,1.41-6.28,1.75-6.51,2-.27.29.96,3.29,1.01,4.49.58,13.68-1.49,37.86-15.99,44.01-1.87.79-5.13-.14-5.88,2.12-.89,17.14-4.11,34.05-8.41,50.59-.77,2.97-4.99,11.5-2.72,13.28,1.42,1.11,8.72,3.31,11.01,4,14.86,4.54,32,6.76,46.99,2.01l-18.99-11.49c23.25,2.1,51.89,1.51,73.68-7.83,1.43-.61,14.44-6.88,12.32-9.17l-24.99-4.5c14.42-6.04,28.6-12.48,41.31-21.69,8.99-6.51,21.87-17.77,26.69-27.81,1.65-3.45,2.38-6.34,3-10,.13-.74,2.63-4.22-.57-4.95-5.2-1.18-29.55,15.68-35.43,18.95-1.21.67-4.75,2.62-6,1.5,20.79-23.17,41.28-47.77,52-77.5,2.52-6.99,5.4-15.11,5.98-22.52.23-2.91.93-15.61-2.59-16.4-4.53-1.01-32.1,26.3-36.8,31.02-1.05,1.05-1.69,2.69-2.59,3.9-.95.28-2.07.65-3,1,.06-.32-.08-.69,0-1,.35-.27.81-.59,1-1,7.47-16.34,20.05-31.5,25-49ZM273.75,243.75c-1.54,5.17-3.37,9.9-3.87,15.63-1.71,19.75,4.22,51.41,30.87,38.37v15.5c0,2.76,2.33,11.56,3.28,14.72,2.93,9.75,16.58,35.14,28.98,32.61,4.89-1,4.02-6.54,7.73-8.82,5.73,19.43,21.83,37.2,41.5,43.01,5.39,1.59,11.86,4.02,16.56-.47,2.43-.66,2.3-7.41,4.44-6.53,1.43.59,7.06,9.81,9,12,6.41,7.26,17.91,17.09,27.31,19.69,19.04,5.26,34.05-16.77,42.71-30.69,3.14,16.5,16.96,11.6,26.82,3.82,6.82-5.38,11.63-13.42,14.39-21.61,1.33-3.95,2.52-14.04,3.76-16.24,1.44-2.57,4.01,4.31,5.55,5.49,6.53,4.98,12.2-8.47,13.68-13.26,4.3-13.91,1.49-27.12.29-41.22,12.1,14.8,16.96-1.23,15.86-13.38-1.11-12.28-5.89-18.06-11.87-27.62-.38-.6-2.29-4.72-1.99-4.99,19.71,2.46,12.93-8.56,4.31-17.82-20.85-.96-41.66,1.43-62.31,3.82,3.94,8.64,9.07,16.96,15.49,24,3.61,3.96,17.97,12.24,7.74,16.72-8.74,3.83-25.81,2.16-35.23,1.27-26.86-2.55-52.47-13.14-72-32-7-6.77-14.2-16.03-18.01-25-8.07,4.4-14.99,8.31-24.16,10.32-28.77,6.33-57.61-3.83-75.32-27.31-8.05,9.14-12.1,18.54-15.5,29.98ZM401.75,231.75c.13-1.3-7.82-8.95-7.98-4.51-.03.73,6.55,11.06,7.56,12.42,15.55,20.99,42.62,36.25,68.23,40.77,13.08,2.31,25.01,2.22,38.18,1.31.84-3.72-2.67-3.86-4.54-5.95-5.32-5.95-10.59-12.48-14.63-19.37-2.89-4.94-2.69-12.22-9.83-10.66-1.06,1.01,5.4,13.03,6.57,14.91,3.76,6.03,9.37,10.61,12.42,17.07-1.71,2.26-15.81-1.14-19-1.99-27.62-7.38-39.65-21.48-61.66-35.84-4.66-3.04-10.86-4.58-15.34-8.16ZM465.25,246.75c-3.85-1.1-20.51,0-26,0-.59,0-2.05-1.61-3.5-.99-2.68,2.13,41.3,25.71,45.49,24,1.42-.58.09-1.9-.28-2.72-1.51-3.37-13-19.52-15.71-20.29ZM30.75,539.75c.21,7.18,11.02,12.92,17.5,13.08,10.63.26,36.7-9.2,48.5-12.08,11.89-2.91,24.2-4.97,36-7.99.34.25-.53,1.13-1,1.49-.89.69-12.3,5.88-14,6.5-.83.3-2.38.44-4,1-21.16,7.29-49.69,11.72-69.26,20.24-4.28,1.86-7.74,2.86-6.74,7.76.82,4.02,2.3,5.35,5.52,7.98,24.49,20,48.95,1.91,71.22-9.95,5.51-2.94,10.82-6.03,16.26-9.03,6.29-3.46,12.51-6.89,19-10l2,1c-4.27,3.9-9.16,7.66-14,11-19.6,13.55-41.02,24.65-62.87,34.12-1.25,7.48,11.6,10.54,17.33,10.92,21.34,1.39,46.79-21.12,62.54-34.03,4.57-3.75,9.58-7.13,14-11v3c-10.68,11.52-21.52,22.58-34.08,32.42-1.84,1.44-10.48,6.15-10.8,6.7-2.01,3.48,6.8,6.48,9.47,6.81,12.36,1.5,28.32-13.97,36.43-22.39,3.33-3.46,28.75-33.12,26.97-35.51-14.73-6.34-28.3-15.76-40.72-25.88-20.62,2.37-44.86,7.17-65.28,1.86-2.06-.54-4.98-1.36-7-2-.11-.03-.3-1.24-.97-1.53-2.29-.99-36.21,4.7-41.03,6.02-5.56,1.53-11.19,2.83-10.99,9.51ZM442.75,541.75c.13-1.31-.08-2.68,0-4-1.18-1.19-11.2,6.01-13.32,7.17-17.61,9.58-36.16,17.97-55.67,22.84-.4,2.4,1.99,2.98,3.62,3.87,12.34,6.71,24.26,8.39,37.37,4.13,2.94-.96,5.22-.08,8.51-2.98,2.52-2.22,2.29-4.82,2.5-5.03.34-.33,3.83,2.58,8.39-2.09,5.15-5.28,7.9-16.72,8.6-23.9ZM460.75,594.75c-2.51,1.4-3.73,4.73-6.87,3.86-3.3-6.41-8.74-11.31-13.13-16.86-.87-1.09-4.4-7.86-5.49-7.95-5.18,3.24-10.07,7.57-16.52,7.96.07,3.88,3.91,5.86,5.97,8.52,4.62,5.96,8.87,12.2,13.03,18.47.11,1.08.94,2.33.87,3.51-.27,4.78-16.23,16.3-18.4,24.46-.97,3.64-1.69,13.47,3.53,12.03,1.58-.43,15.37-14.48,18.53-16.97,14.48-11.42,32.54-18.87,50.47-23.03.85-.2,2.08.16,3,0,.47-.08.88-.52,1-1,4.2-.82,27.18-3.96,28-7.52.51-2.19-3.87-3.91-5.46-4.53-9.66-3.8-25.73-2.07-35.54,1.04v-4c9.76-7.38,23.38-13.38,31.91-20.59,1.24-1.05,3.5-2.51,3.09-4.41-.29-1.34-2.46-1.78-3.57-1.93-20.61-2.84-40.82,15.64-54.43,28.93ZM249.75,603.75c-11.85,24.4-22.76,25.38-40.53,41.97-3.43,3.2-10.51,9.98-9.47,15.03.56,2.06.89.03,1,0,.31-.09.71.1,1,0-.56,2.9,1.51,2.18,3.39,1.91,9.03-1.31,22.35-12.3,28.61-18.91l6.99-4.99c-3.87,11.75-10.17,25.39-7.55,38.05s12.81,1.56,16.03-5.07c4.4-9.05,5.75-21.05,5.53-30.98,1.54.86,3.11,3.46,3.99,5,.14.25-.14.74,0,1,.34.65.64,1.32,1,2,.22.41.82.69,1,1,.14.25-.14.75,0,1,5.04,8.63,11.66,18.68,22,21,.55.12,1.35-.05,2,0,.11,0,.67,1.14,1.39.96.66-.11.44-.72.61-.96,3.88-5.58-5.46-19.81-9.02-24.48-3.18-4.16-18.14-18.04-18.81-21.27-.36-1.76,5.43-12.7,6.83-15.25,1.02-1.86,8.5-11.55,7-13-4.15,1.79-16.3-5.52-18.35-4.92-3.1.91-3.7,8.95-4.65,10.92Z"/>
    <path class="cls-11" d="M210.75,195.75h-3c1.03-2.8,1.17-7.39,3.99-9,.5,3.18-.38,5.98-.99,9Z"/>
    <path class="cls-15" d="M273.75,243.75c3.4-11.45,7.45-20.84,15.5-29.98,17.72,23.48,46.55,33.64,75.32,27.31,9.17-2.02,16.09-5.93,24.16-10.32,3.81,8.97,11.01,18.23,18.01,25,2.96,9.04,13.67,19.35,20.99,25.51,9.39,7.9,36.83,22.86,48.78,17.82,3.32-1.4,1.99-8.47,2.23-11.34,9.42.89,26.49,2.56,35.23-1.27,10.23-4.48-4.13-12.75-7.74-16.72-6.42-7.04-11.55-15.36-15.49-24,20.65-2.39,41.46-4.78,62.31-3.82,8.62,9.26,15.41,20.28-4.31,17.82-.3.27,1.62,4.39,1.99,4.99-2.48,3.17.92,5.01,1.8,7.7,2.13,6.51,3.43,17.93,1.98,24.57-1.73,7.92-9.36.27-10.77,1.73.78,10.5.94,19.81-1.3,30.2-.87,4.05-4.61,16.37-9.24,16.83-2.45.24-5.01-2.82-6.51-1.61-.71.57-5.89,13.81-7.44,16.59-4.15,7.45-9.97,15.3-17.58,19.42-2.2,1.19-7.96,3.73-10.22,3.39-4.04-.61-4.5-6.73-8.7-6.82-5.43,10.71-17.83,24.08-29.96,26.56-20.54,4.19-37.61-15.87-49.7-29.49-14.49,13.67-35.72-3.4-45.88-15.06-6.38-7.33-10.67-15.95-16-24.02-2.15-.5-6.57,9.89-16.5,2.52-13.66-10.13-19.32-32.43-20.99-48.53-25.84,8.01-28.81-21.12-28.98-39.51-.02-1.69.64-4.45-1.02-5.49ZM498.75,332.76c1.76,7.91,10.39,12.51,17.04,6.54,8.48-7.61,1.67-26.88-.04-24.55.24,7.06,1.28,21.53-9.49,21.07-3.57-.15-4.47-2.65-7.51-3.06ZM388.74,328.75c-7.53,7.49-12.67,10.32-20.4.91l-6.58-12.91c-.48,7.34-.15,13.07,4.47,19.02,8.49,10.94,23.01,6.83,22.51-7.02ZM471.74,347.76c-1.99-2.48-3.41,5.79-3.81,6.69-4.48,10.03-11.34,17.76-22.21,8.83-.65-.54-9.25-11.03-6.77-4.23.7,1.9,5.11,9.26,6.57,10.72,14.66,14.64,29.38-7.2,26.21-22Z"/>
    <path class="cls-10" d="M230.75,161.75c6.01-46.46,24-90.12,68.33-111.17,53.16-25.24,121.66-22.58,172.85,5.55,1.37.75,3.43.06,2.83,2.62-4.05,3.29-15.42,17.47-9.6,22.09,4.24,3.36,12.28-2.87,16.82-4.37,14.36-4.75,17.94-4.97,24.78,8.28-28.39-11.22-45.59,13.1-50.53,37.97-.81,4.08-.88,8.13-1.47,12.03-.6,4.02-1.24,8.01-2.01,12.01-12.21-4.13-23.75-1.34-34.98,3.99-.63-2.32-1.27-4.72-2.01-7-1.35-4.11-2.65-5.93-4-9-1.62-3.68-2.07-4.63-4-8-.67-1.18-.91-2.29-2-4-5.26-8.26-8.84-11.69-16-18-.15-.14-.1-1.65-1.05-2.41-2.9-2.34-6.21-4.87-9.95-5.59-2.97-3.62-11.12-6.49-15.8-7.7-24.07-6.25-47.31-.33-65.2,16.7-7.26,6.91-11.23,13.71-15,23-.74,1.81-1.35,2.84-2,5-.29.95-.67,1.48-1,3-.07.32.06.68,0,1-1.45,1.28-1.64,3.23-2,5-.12.6.1,1.37,0,2-.48,2.99-1.56,5.77-1,9-2.11,2.05-39.72,7.05-46,8ZM340.42,55.14c-14.91.16-33.13,11.41-40.47,24.32-13.01,22.88,11.32,6.75,18.82,3.82,10.45-4.09,21.22-5.64,32.47-4.51,6.74.68,24.97,10.47,21.04-4.04-3.29-12.13-20.11-19.71-31.86-19.59Z"/>
    <path class="cls-10" d="M277.75,189.75c.32,1.41-.18,2.82.55,4.92,1.47,4.24,5.91,10.52,8.27,14.58-11.38,10.5-19.43,25.18-22.36,40.46-2.17,11.34-2.79,31.05,2.53,41.03-2.76,1.05-1.66,1.77-1.22,3.65.8,3.39,3.81,10.99,5.22,14.35-24.8-15.56-45.06-13.19-70,0,12.16-37.89,19.78-77.37,24-117,5.85,0,12.52-1,17.5-1h20c.35,0,1.66-.96,2.96-1.04,4.15-.24,8.39.24,12.54.04Z"/>
    <path class="cls-4" d="M591.75,233.75c-.85.06-1.73.03-2,1-3.32.05-6.67,0-10,0,.79-2.7-4.12-2.67-5.62-2.88-42.15-5.74-71.21.74-111.89,2.87-15.54.81-54.69.44-55.49-20.99,9.28-13.25,7.28-24.14,23-34,17.61-3.03,36.16,4.23,52.77,9.73,25.77,8.53,54.23,19.19,79.21,29.79,10.19,4.32,20.38,9.04,30.01,14.49ZM448.74,201.75c-.06-8.42-15.86-16.23-18.6-7.02-2.46,8.25,7.19,3.16,12.06,4.07,2.55.48,3.87,3.11,6.54,2.94Z"/>
    <path class="cls-11" d="M273.75,243.75c1.66,1.04,1,3.8,1.02,5.49.17,18.38,3.13,47.52,28.98,39.51,1.67,16.09,7.32,38.39,20.99,48.53,9.93,7.37,14.36-3.03,16.5-2.52,5.34,8.06,9.62,16.69,16,24.02,10.16,11.66,31.39,28.73,45.88,15.06,12.09,13.61,29.16,33.67,49.7,29.49,12.13-2.47,24.53-15.85,29.96-26.56,4.2.09,4.66,6.21,8.7,6.82,2.26.34,8.02-2.2,10.22-3.39,7.61-4.12,13.43-11.96,17.58-19.42,1.55-2.78,6.73-16.02,7.44-16.59,1.5-1.2,4.06,1.86,6.51,1.61,4.63-.46,8.37-12.79,9.24-16.83,2.24-10.39,2.08-19.7,1.3-30.2,1.41-1.46,9.04,6.19,10.77-1.73,1.45-6.64.15-18.06-1.98-24.57-.88-2.7-4.28-4.53-1.8-7.7,5.98,9.56,10.77,15.34,11.87,27.62,1.1,12.15-3.77,28.18-15.86,13.38,1.2,14.09,4,27.3-.29,41.22-1.48,4.79-7.15,18.24-13.68,13.26-1.55-1.18-4.11-8.06-5.55-5.49-1.24,2.2-2.43,12.29-3.76,16.24-2.77,8.18-7.57,16.22-14.39,21.61-9.87,7.78-23.68,12.68-26.82-3.82-8.66,13.92-23.67,35.95-42.71,30.69-9.4-2.6-20.9-12.43-27.31-19.69-1.94-2.2-7.57-11.42-9-12-2.15-.88-2.02,5.88-4.44,6.53-4.69,4.49-11.17,2.07-16.56.47-19.67-5.82-35.76-23.58-41.5-43.01-3.71,2.28-2.84,7.83-7.73,8.82-12.4,2.53-26.04-22.86-28.98-32.61-.95-3.15-3.28-11.95-3.28-14.72v-15.5c-26.66,13.04-32.58-18.62-30.87-38.37.5-5.73,2.33-10.46,3.87-15.63Z"/>
    <path class="cls-3" d="M307.75,28.75c-7.88,4.91-15.88,7.54-23.92,12.58-13.09,8.22-29.82,23.71-38.52,36.48-6.66,9.76-5.16,16.65-18.56,20.44-16.23,4.59-32.22-2.8-21.82-20.82s43.87-26.41,63.83-29.18c0-1.1-18.77-2.36-21.23-2.78-12.15-2.06-33.16-8.58-32.78-23.72,2.9.16,2-2.96,4.47-5.03,11.12-9.34,46.59,5.62,60.49,8.57,7.86,1.66,20.28,4.07,28.03,3.47Z"/>
    <path class="cls-9" d="M520.75,107.75c11.64,28.33,14.77,58.88,19,89-21.81-9.02-43.51-18.54-66.3-24.97-12.58-32.73,12.11-66.15,47.3-64.03ZM519.74,139.75c-.92-5.34-12.13-4.4-16.26-3.75-11.82,1.86-27.99,17.04-27.74,29.76,5.11-.75,9.11-3.89,14.21-5.28,12.55-3.41,23.98-1.78,35.77,3.27-3.9-12.06-20.06-14.76-30.99-12,6.17-6.6,16.16-10.6,25-12Z"/>
    <path class="cls-8" d="M230.75,161.75c-2.06.31-4.4,1.76-7,.99.87-6.64,2.2-13.28,3.68-19.81,13.68-60.34,45.61-100.69,108.13-113.87,41.73-8.8,95.84-8.06,132.71,15.67,2,1.29,14.03,8.95,12.48,11.01-3.32-.06-4.12,1.48-6,3.01.6-2.57-1.46-1.87-2.83-2.62-51.19-28.13-119.68-30.79-172.85-5.55-44.33,21.05-62.32,64.71-68.33,111.17Z"/>
    <path class="cls-13" d="M402.75,134.75c34.97,41.45-8.77,107.55-62.38,101.88-40.08-4.24-73.92-52.66-53.62-89.88,24.14-44.27,83.18-50.9,116-12ZM406.98,170.83c0-32.51-26.36-58.87-58.87-58.87s-58.87,26.36-58.87,58.87,26.36,58.87,58.87,58.87,58.87-26.36,58.87-58.87Z"/>
    <path class="cls-9" d="M546.75,192.75c-1.32-15.12-3.36-30.3-6.31-45.19-2.56-12.89-6.53-25.12-9.69-37.81,35.84,11.2,45.18,59.82,16,83Z"/>
    <path class="cls-13" d="M469.75,119.75l8.67-6.83c28.68-22.25,61.98-16,86.33,8.83,16.81,17.14,13.09,54.14-1.49,72.01-2.62,3.22-7.35,8.85-11.54,7.56-5.97-1.83.06-3.85,2.56-6.54,34.05-36.59,7.38-96.67-43.02-93.02-31.91,2.31-52.15,36.93-45.51,66.99-11.22,1.41-4.75-2.45-7.91-6.6-.46-.6-7.18-3.41-7.59-3.41h-18c-2.3,0-9.84,4.82-12.99,5.01-.84,0-.66-3.28-.51-4.01,9.49-4.55,16.5-7.19,27.39-5.89,2.62.31,11.76,4.4,12.61,1.89.61-1.81-.3-6.87.02-9.49,1.22-10.06,5.23-18.41,10.98-26.51Z"/>
    <path class="cls-12" d="M378.75,96.75c1.78,2.17,2.79,2.16,3.09,2.59,2.55,3.54-2.5,6.73,7.91,5.41,7.16,6.31,10.74,9.74,16,18h-3c-36.37-40.97-102.19-27.29-123,22h-2c.1-.63-.12-1.4,0-2,2.7-.78,1.67-3.21,2-5,.06-.32-.07-.68,0-1l1-3c.65-2.16,1.26-3.19,2-5,3.76-.43,4.77-5.87,5.95-8.55l9.05-14.45c17.89-17.04,41.14-22.95,65.2-16.7,4.68,1.21,12.83,4.08,15.8,7.7Z"/>
    <path class="cls-14" d="M429.75,179.75c21.41-13.42,57.25,3.17,78.99,11.51,24.72,9.49,49.73,20.08,73.71,31.29,6.35,2.97,14.54,6.4,19.31,11.18-1.99.09-4.01-.09-6,0-1.33.06-2.68-.09-4,0-9.64-5.44-19.82-10.16-30.01-14.49-24.98-10.6-53.45-21.25-79.21-29.79-16.61-5.5-35.16-12.76-52.77-9.73Z"/>
    <path class="cls-3" d="M406.75,213.75c.8,21.44,39.95,21.8,55.49,20.99,40.68-2.12,69.74-8.61,111.89-2.87,1.51.21,6.41.18,5.62,2.88-14.97.03-30.67-.66-45.54-.04-37.6,1.57-75.14,11.84-112.22.31-8.34-2.59-17.35-6.1-23.22-12.76,0-.58,7.09-7.23,7.98-8.5Z"/>
    <path class="cls-3" d="M401.75,231.75c0,.06-.89-.17-.99.51-.37,2.61,1.35.79,2.64,1.78,5.69,4.32,10.57,12.2,16.34,17.23,14.46,12.58,36.39,21.6,54.97,26.04,1.71.41,4.64,1.76,4.05-1.55,3.19.85,17.29,4.25,19,1.99-3.04-6.46-8.65-11.04-12.42-17.07-1.18-1.89-7.63-13.91-6.57-14.91,7.13-1.56,6.93,5.72,9.83,10.66,4.03,6.89,9.31,13.42,14.63,19.37,1.87,2.09,5.37,2.23,4.54,5.95-13.17.91-25.1,1-38.18-1.31-25.61-4.52-52.68-19.78-68.23-40.77-1.01-1.37-7.59-11.7-7.56-12.42.16-4.44,8.11,3.2,7.98,4.51Z"/>
    <path class="cls-11" d="M478.75,287.75c-.23,2.86,1.09,9.94-2.23,11.34-11.96,5.04-39.39-9.92-48.78-17.82-7.32-6.16-18.03-16.48-20.99-25.51,19.53,18.86,45.14,29.45,72,32Z"/>
    <path class="cls-13" d="M530.75,109.75c3.15,12.69,7.13,24.92,9.69,37.81,2.96,14.89,4.99,30.06,6.31,45.19-2.38,1.89-1.79,4.6-7,4-4.23-30.12-7.36-60.67-19-89,4.19.25,6.11.78,10,2Z"/>
    <path class="cls-12" d="M506.75,84.75c.83,1.6,2.54,2.67,2,4.99-25.41,2.68-45.25,21.8-54,45.01.58-3.9.66-7.96,1.47-12.03,4.94-24.87,22.15-49.19,50.53-37.97Z"/>
    <path class="cls-8" d="M224.75,191.75c-4.22,39.63-11.84,79.11-24,117-1.12.59-4.41,3.99-3.98.54,10.49-38.52,16.69-78.14,22.98-117.54h5Z"/>
    <path class="cls-13" d="M275.75,164.75c-.23,1.92-.86,4.99-2.69,5.81l-60.56,9.44c-13.92,3.32-8.41,18.75-14.46,20.58-8.4,2.54-6.57-8.86-5.3-13.84,3.37-.6,4.07-5.87,6.76-8.02,1.41-1.13,3.49-1.95,5.23-2.5l71.01-11.48Z"/>
    <path class="cls-2" d="M219.75,191.75c.25-1.57-.42-6.45.05-6.95l55.95-8.06c.11,4.4,1.04,8.74,2,13.01-4.15.2-8.39-.28-12.54-.04-1.3.08-2.61,1.04-2.96,1.04h-20c-4.98,0-11.65,1-17.5,1h-5Z"/>
    <path class="cls-4" d="M214.75,21.75c.2-7.69,6.39-13.52,13.74-14.76,14.37-2.44,44.21,11.61,60.25,15.27,8.83,2.02,17.92,3.87,27.01,3.5-1.11,2.41-5.65,2.81-8,2.99-7.76.6-20.17-1.8-28.03-3.47-13.91-2.94-49.37-17.91-60.49-8.57-2.47,2.08-1.57,5.19-4.47,5.03Z"/>
    <path class="cls-3" d="M465.25,246.75c2.71.77,14.19,16.92,15.71,20.29.37.82,1.7,2.14.28,2.72-4.18,1.7-48.17-21.87-45.49-24,1.45-.62,2.91.99,3.5.99,5.49,0,22.15-1.1,26,0Z"/>
    <path class="cls-6" d="M402.75,134.75c-32.82-38.9-91.86-32.27-116,12,18.74-49.32,87.87-56.87,116-12Z"/>
    <path class="cls-4" d="M478.75,275.75c.6,3.31-2.33,1.96-4.05,1.55-18.58-4.43-40.51-13.45-54.97-26.04-5.77-5.02-10.64-12.9-16.34-17.23-1.29-.98-3.01.84-2.64-1.78.1-.68.98-.45.99-.51,4.47,3.59,10.68,5.13,15.34,8.16,22.01,14.35,34.04,28.46,61.66,35.84Z"/>
    <path class="cls-6" d="M564.75,121.75c-24.36-24.83-57.65-31.08-86.33-8.83l-8.67,6.83c13.94-19.64,38.55-29.02,61.99-22.49,12.8,3.57,27.08,12.34,33.01,24.49Z"/>
    <path class="cls-6" d="M192.75,186.75c1.39-5.45,5.43-12.82,11.34-14.17l71.15-11.85c.85-.04.62,3.1.51,4.01l-71.01,11.48c-1.74.55-3.82,1.36-5.23,2.5-2.69,2.15-3.39,7.42-6.76,8.02Z"/>
    <path class="cls-13" d="M508.74,69.75c-6.65-.85-13.65-1.68-20.39-.89s-11.37,4.68-17.6,5.89c3.15-13.62,17.53-17.97,29.69-13.19,1.75.69,10.72,5.77,8.3,8.19Z"/>
    <path class="cls-10" d="M452.75,165.76c1.48,1.41-.1,1.81-1.48,1.99-5.29.68-11.21-1.02-16.49,1.53l-15.02,9.47c-2.09-9.55,4.72-12.23,12.73-13.76,3.17-.61,18.46-.95,20.27.78Z"/>
    <path class="cls-5" d="M458.75,155.75c-.85,2.51-9.99-1.58-12.61-1.89-10.89-1.3-17.9,1.34-27.39,5.89.71-3.59,4.13-4.92,7.33-6.17,11.7-4.58,21.49-2.48,32.67,2.17Z"/>
    <path class="cls-9" d="M279.75,144.75c-1,2.37-1.04,7.1-3,9-.56-3.23.52-6.01,1-9h2Z"/>
    <path class="cls-9" d="M405.75,122.75c1.09,1.71,1.33,2.82,2,4l-1,1c-.98-1.32-2.93-3.8-4-5h3Z"/>
    <path class="cls-11" d="M411.75,134.75h-1c-.97-1.73-3.07-5.73-4-7l1-1c1.93,3.37,2.38,4.32,4,8Z"/>
    <path class="cls-8" d="M415.75,143.75c-2.34-2.5-3.34-6.04-5-9h1c1.35,3.07,2.65,4.89,4,9Z"/>
    <path class="cls-3" d="M591.75,233.75c1.32-.09,2.67.06,4,0-1.09,1.68-4.11.97-6,1,.27-.97,1.15-.94,2-1Z"/>
    <path class="cls-11" d="M471.74,347.76c3.17,14.8-11.55,36.64-26.21,22-1.46-1.45-5.87-8.81-6.57-10.72-2.48-6.8,6.12,3.7,6.77,4.23,10.87,8.94,17.74,1.2,22.21-8.83.4-.89,1.82-9.16,3.81-6.69Z"/>
    <path class="cls-11" d="M388.74,328.75c.5,13.85-14.02,17.96-22.51,7.02-4.62-5.95-4.95-11.68-4.47-19.02l6.58,12.91c7.73,9.41,12.87,6.58,20.4-.91Z"/>
    <path class="cls-11" d="M498.75,332.76c3.04.42,3.95,2.91,7.51,3.06,10.77.46,9.73-14.01,9.49-21.07,1.7-2.33,8.52,16.93.04,24.55-6.65,5.97-15.28,1.37-17.04-6.54Z"/>
    <path class="cls-16" d="M340.42,55.14c11.75-.12,28.57,7.45,31.86,19.59,3.93,14.51-14.29,4.72-21.04,4.04-11.25-1.13-22.02.41-32.47,4.51-7.5,2.94-31.82,19.06-18.82-3.82,7.34-12.91,25.56-24.16,40.47-24.32ZM365.74,76.75c-.9-5.27-7.12-9.73-11.62-11.87-17.44-8.32-36.92.75-46.36,16.39,18.55-8.29,38.34-11.39,57.97-4.52Z"/>
    <path class="cls-9" d="M297.75,105.75l-9.05,14.45c-1.18,2.68-2.19,8.12-5.95,8.55,3.77-9.29,7.74-16.09,15-23Z"/>
    <path class="cls-9" d="M389.75,104.75c-10.4,1.32-5.35-1.87-7.91-5.41-.31-.43-1.32-.42-3.09-2.59,3.75.72,7.06,3.24,9.95,5.59.94.76.89,2.28,1.05,2.41Z"/>
    <path class="cls-9" d="M277.75,142.75c.36-1.77.55-3.72,2-5-.33,1.79.7,4.22-2,5Z"/>
    <path class="cls-9" d="M279.75,136.75c.33-1.52.71-2.05,1-3l-1,3Z"/>
    <path class="cls-16" d="M448.74,201.75c-2.68.17-4-2.47-6.54-2.94-4.88-.91-14.52,4.17-12.06-4.07,2.75-9.21,18.55-1.41,18.6,7.02Z"/>
    <path class="cls-16" d="M519.74,139.75c-8.83,1.4-18.83,5.4-25,12,10.93-2.76,27.1-.06,30.99,12-11.8-5.05-23.22-6.68-35.77-3.27-5.1,1.38-9.1,4.52-14.21,5.28-.26-12.72,15.92-27.9,27.74-29.76,4.13-.65,15.34-1.58,16.26,3.75Z"/>
    <path class="cls-16" d="M406.98,170.83c0,32.51-26.36,58.87-58.87,58.87s-58.87-26.36-58.87-58.87,26.36-58.87,58.87-58.87,58.87,26.36,58.87,58.87ZM401.19,170.87c0-29.33-23.78-53.11-53.11-53.11s-53.11,23.78-53.11,53.11,23.78,53.11,53.11,53.11,53.11-23.78,53.11-53.11Z"/>
    <path class="cls-13" d="M365.74,76.75c-19.63-6.87-39.42-3.78-57.97,4.52,9.43-15.63,28.92-24.71,46.36-16.39,4.49,2.14,10.72,6.61,11.62,11.87Z"/>
    <path class="cls-9" d="M401.19,170.87c0,29.33-23.78,53.11-53.11,53.11s-53.11-23.78-53.11-53.11,23.78-53.11,53.11-53.11,53.11,23.78,53.11,53.11ZM370.75,185.75c5.85-1.79,6.33-12.3,5.97-17.48-2.94-43.07-53.19-39.23-53.87.1-.09,5.07,1.92,18.24,7.89,19.38-.04-13.89,5.8-39.49,25.06-33.55,8.59,2.65,15.32,23.18,14.95,31.55Z"/>
    <path class="cls-16" d="M370.75,185.75c.37-8.37-6.36-28.9-14.95-31.55-19.26-5.94-25.1,19.66-25.06,33.55-5.96-1.15-7.98-14.31-7.89-19.38.68-39.33,50.93-43.17,53.87-.1.35,5.18-.12,15.69-5.97,17.48Z"/>
  </g>
</svg>